<svg xmlns="http://www.w3.org/2000/svg" viewBox="0 0 100 100" width="100" height="100">
  <defs>
    <linearGradient id="logoGradient" x1="0%" y1="0%" x2="100%" y2="100%">
      <stop offset="0%" style="stop-color:#d4824a;stop-opacity:1" />
      <stop offset="100%" style="stop-color:#8e4825;stop-opacity:1" />
    </linearGradient>
  </defs>
  
  <!-- Background circle -->
  <circle cx="50" cy="50" r="45" fill="url(#logoGradient)" stroke="#6b3419" stroke-width="2"/>
  
  <!-- Stylized "G" -->
  <path d="M30 30 Q30 20 40 20 L60 20 Q70 20 70 30 L70 45 L55 45 L55 35 L60 35 L60 30 L40 30 Q35 30 35 35 L35 65 Q35 70 40 70 L60 70 Q65 70 65 65 L65 55 L50 55 L50 45 L75 45 L75 65 Q75 80 60 80 L40 80 Q25 80 25 65 L25 35 Q25 20 40 20" fill="white" stroke="none"/>
  
  <!-- Small accent dots -->
  <circle cx="20" cy="20" r="3" fill="#FFF" opacity="0.8"/>
  <circle cx="80" cy="80" r="3" fill="#FFF" opacity="0.8"/>
  <circle cx="80" cy="20" r="2" fill="#FFF" opacity="0.6"/>
</svg>